<svg width="136" height="44" viewBox="0 0 136 44" fill="none" xmlns="http://www.w3.org/2000/svg">
<path d="M117.182 35.0975C127.471 35.0913 130.74 21.0329 121.249 16.5603C119.589 15.7782 117.337 15.4589 115.209 15.9213C113.248 16.3478 111.773 17.2453 110.535 18.497C107.636 21.4289 106.842 25.5032 108.409 29.2365C109.665 32.2281 112.992 35.0913 117.161 35.0975H117.182H117.182Z" fill="#FF0000"/>
<path d="M9.0791 8.86328V33.7173H11.3236V25.4328C15.8512 25.4328 18.2423 25.5651 20.7709 23.0196C21.23 22.5572 22.1294 21.2949 22.4213 20.6648C24.2486 16.7165 22.7054 11.9161 18.7639 9.78263C17.3964 9.0426 16.4767 8.86293 14.4406 8.86328H14.3565H14.2729H14.1888H14.1054H10.5035H10.4195H10.3359H10.252H10.1686H10.0845H10.0007H9.91698H9.83315H9.74968H9.66544H9.58197H9.49814H9.41446H9.33064H9.24717H9.16314H9.07931H9.0791ZM11.1606 11.112H15.8283C18.3956 11.112 20.4962 13.227 20.4962 15.812V17.9834C20.4962 20.5681 18.3957 22.6833 15.8283 22.6833H11.1606V11.112Z" fill="#FF0000"/>
<path d="M42.1189 18.1514H40.249V33.7167H42.4931V21.917C42.4931 21.4878 43.3706 20.6195 43.7014 20.3726C45.4624 19.0574 47.9285 19.2936 49.2596 20.753C49.8016 21.3473 50.3477 22.3265 50.3477 23.4233V33.7166H52.5918V23.5491C52.5918 20.1365 50.0412 17.2727 46.7321 17.2727C45.2062 17.2727 44.2964 17.2067 42.9919 18.036C42.3843 18.4221 42.8064 18.1514 42.1188 18.1514L42.1189 18.1514Z" fill="#FF0000"/>
<path d="M81.2676 18.1533H78.2754V20.4127H81.2676V33.7186H83.5115V20.4127C87.1366 20.4127 86.5037 20.9846 86.5037 18.1533H83.5115V11.877H81.2676V18.1533Z" fill="#FF0000"/>
<path d="M57.8283 18.1533H54.8359V20.4127H57.8283V33.7186H59.9478V20.4127H62.94V18.1533H59.9478V11.877H57.8283V18.1533Z" fill="#FF0000"/>
<path d="M67.0538 19.9087V18.1515H64.8096V33.7168H67.0538V25.9341C67.0538 23.8191 68.1321 21.8447 69.5977 20.8386C70.2004 20.4243 70.8043 20.3306 71.4171 20.0346C71.3021 19.5364 70.6277 18.5329 70.2952 17.9004C70.0197 18.0336 69.6681 18.1402 69.4048 18.2591C69.0548 18.4169 68.843 18.5493 68.5233 18.7527C67.9725 19.102 67.5528 19.5723 67.0536 19.9087H67.0538Z" fill="#FF0000"/>
<path d="M27.7803 19.9086V18.1514H25.6611V33.7167H27.7803V26.6871C27.7803 24.6971 28.109 23.5315 28.9247 22.316C30.225 20.3779 31.4054 20.4515 32.2687 20.0346C31.9098 19.351 31.4412 18.5309 31.022 17.9004C30.2019 18.2966 29.2356 18.6558 28.5586 19.3112C28.2405 19.6193 28.2241 19.7895 27.7803 19.9086Z" fill="#FF0000"/>
<path d="M34.2637 33.7176H36.5079V18.1523H34.2637V33.7176Z" fill="#FF0000"/>
<path fill-rule="evenodd" clip-rule="evenodd" d="M88.277 27.9426C88.8091 27.3997 89.7352 27.1521 90.2976 26.6874C90.1992 26.0992 90.1188 25.7765 90.1188 25.1811H99.4161C98.6041 24.0927 98.5791 24.3781 99.0018 22.9215H90.6175C90.733 22.7021 90.8105 22.4942 90.9513 22.2537C91.2089 21.8143 91.2461 21.9952 91.3656 21.5357L88.8721 21.377C87.9776 22.6433 87.7967 24.7072 87.8732 26.3124C87.9062 27.0135 88.0763 27.6835 88.277 27.9426H88.277Z" fill="#FF0000"/>
<path d="M73.5371 33.7176H75.6565V18.1523H73.5371V33.7176Z" fill="#FF0000"/>
<path fill-rule="evenodd" clip-rule="evenodd" d="M100.325 20.4119C100.568 20.7077 101.912 21.6214 102.213 22.9222H99.0022C98.5795 24.3789 98.6046 24.0935 99.4165 25.1818H104.816C104.831 23.6753 104.491 22.1117 103.955 21.1684C103.365 20.1289 102.625 19.1556 101.62 18.5293C101.221 19.1518 100.717 19.5505 100.325 20.4119H100.325Z" fill="#363435"/>
<path fill-rule="evenodd" clip-rule="evenodd" d="M88.873 21.3773L91.3666 21.536C91.7618 21.28 91.9665 20.9507 92.3444 20.6431C92.7037 20.3498 93.0941 20.0544 93.5246 19.8231C94.557 19.2679 95.2602 19.1563 96.792 19.1563L97.7963 16.8967C94.7433 16.5851 92.5195 17.1913 90.337 19.3755C89.934 19.7793 89.039 20.8456 88.873 21.3774V21.3773Z" fill="#FAED23"/>
<path d="M96.9762 30.2034C96.9762 29.6343 96.7438 28.6302 96.5252 28.1471C96.4199 27.9147 96.3978 27.6751 95.9448 27.6382L95.4028 27.7257C94.9688 27.884 94.9669 27.9728 94.6074 28.0695C94.6448 28.5203 95.7294 30.0928 95.7294 32.7138C96.1412 32.7481 96.4773 32.8768 96.8517 32.9649L99.4514 29.9333C101.073 27.8875 104.357 26.0834 104.706 25.5586C103.012 25.5969 99.9552 27.6404 98.6132 28.7127C98.025 29.1832 97.5011 29.8493 96.9762 30.2032V30.2034Z" fill="#FF0000"/>
<path fill-rule="evenodd" clip-rule="evenodd" d="M88.2771 27.9428C88.1888 29.2472 90.2708 31.9302 91.7397 32.7129C92.06 32.4968 92.2076 32.2578 92.4524 31.9237C92.6982 31.5887 93.0099 31.3377 93.1111 30.9554C92.6106 30.2028 91.8311 30.2967 90.7386 28.0716C90.4805 27.5462 90.4898 27.2259 90.2978 26.6875C89.7353 27.1522 88.8093 27.3999 88.2772 27.9427L88.2771 27.9428Z" fill="#2475BA"/>
<path d="M72.7891 14.7639C72.7891 15.6458 73.8291 16.5213 74.5347 16.5213C76.9546 16.5213 76.9456 12.8809 74.6591 12.8809C73.5948 12.8809 72.7891 13.6923 72.7891 14.7639H72.7891Z" fill="#FF0000"/>
<path d="M37.1315 14.8893C37.1315 13.673 36.4168 12.8809 35.3862 12.8809C33.8895 12.8809 32.9858 14.7524 34.0373 15.871C35.1558 17.0611 37.1315 16.2937 37.1315 14.8894V14.8893Z" fill="#FF0000"/>
<path fill-rule="evenodd" clip-rule="evenodd" d="M96.792 19.1561C98.3617 19.1561 99.4249 19.7427 100.326 20.4113C100.717 19.5499 101.222 19.1512 101.621 18.5287C101.027 17.8631 98.9676 16.98 97.7963 16.8965L96.792 19.1561Z" fill="#FF0000"/>
<path d="M115.725 22.8906C116.349 22.8906 116.852 23.078 117.233 23.4435C117.615 23.8091 117.801 24.362 117.801 25.0838V27.9518H116.637V25.2338C116.637 24.7932 116.535 24.465 116.33 24.2403C116.125 24.0246 115.837 23.9122 115.455 23.9122C115.027 23.9122 114.692 24.0434 114.44 24.2964C114.189 24.559 114.068 24.9338 114.068 25.4211V27.9518H112.904V22.9467H114.012V23.5935C114.208 23.3591 114.45 23.1905 114.738 23.0687C115.027 22.9468 115.362 22.8906 115.725 22.8906H115.725Z" fill="#FEFEFE"/>
<path d="M124.262 22.9468V27.1926C124.262 28.9547 123.369 29.8358 121.581 29.8358C121.107 29.8358 120.65 29.7797 120.222 29.6577C119.794 29.5359 119.44 29.3577 119.161 29.1234L119.682 28.2424C119.896 28.4205 120.176 28.5705 120.511 28.6828C120.837 28.7861 121.172 28.8422 121.516 28.8422C122.065 28.8422 122.466 28.7204 122.717 28.4672C122.968 28.2144 123.099 27.8393 123.099 27.3239V27.0614C122.903 27.277 122.661 27.4456 122.373 27.5582C122.084 27.6707 121.777 27.7269 121.433 27.7269C120.958 27.7269 120.539 27.6238 120.157 27.4177C119.775 27.2209 119.468 26.9302 119.254 26.5648C119.031 26.1991 118.919 25.7774 118.919 25.2995C118.919 24.8214 119.031 24.3996 119.254 24.034C119.468 23.6686 119.775 23.3874 120.157 23.1905C120.539 22.9937 120.958 22.8906 121.433 22.8906C121.795 22.8906 122.121 22.9468 122.419 23.0687C122.708 23.1905 122.959 23.3685 123.155 23.6122V22.9468H124.262H124.262ZM121.609 26.7334C122.047 26.7334 122.41 26.6022 122.699 26.3305C122.978 26.0679 123.117 25.7212 123.117 25.2995C123.117 24.8777 122.978 24.5402 122.699 24.2777C122.41 24.0154 122.047 23.8842 121.609 23.8842C121.162 23.8842 120.799 24.0154 120.52 24.2777C120.231 24.5402 120.092 24.8777 120.092 25.2995C120.092 25.7212 120.231 26.0679 120.52 26.3305C120.799 26.6022 121.162 26.7334 121.609 26.7334Z" fill="#FEFEFE"/>
<path fill-rule="evenodd" clip-rule="evenodd" d="M111.185 26.6172C111.636 26.6172 112.002 26.9856 112.002 27.4398C112.002 27.8942 111.636 28.2628 111.185 28.2628C110.733 28.2628 110.367 27.8942 110.367 27.4398C110.367 26.9856 110.733 26.6172 111.185 26.6172Z" fill="#FEFEFE"/>
</svg>
