<svg width="106" height="39" viewBox="0 0 106 39" fill="none" xmlns="http://www.w3.org/2000/svg">
<g clip-path="url(#clip0_2014_33288)">
<mask id="mask0_2014_33288" style="mask-type:luminance" maskUnits="userSpaceOnUse" x="0" y="3" width="32" height="33">
<path d="M32 3.5H0V35.5H32V3.5Z" fill="white"/>
</mask>
<g mask="url(#mask0_2014_33288)">
<path fill-rule="evenodd" clip-rule="evenodd" d="M19.0362 12.9933C17.9698 12.8416 8.16811 15.7156 6.73737 16.1173C6.17752 16.278 5.28888 16.3137 4.98674 17.2241C4.76458 17.8935 5.15559 18.8754 6.062 19.0717C6.55076 19.1788 16.3702 16.3226 18.272 15.8585C18.9296 15.6978 19.7471 15.7156 20.067 14.6535C20.2891 13.9305 19.8715 13.1093 19.0273 12.9844L19.0362 12.9933Z" fill="#85FFBE"/>
<path fill-rule="evenodd" clip-rule="evenodd" d="M21.7895 21.3304C20.6786 21.1608 18.8747 21.8749 17.8261 22.1694L10.1127 24.2402C7.17129 25.0167 8.26431 27.034 9.57063 27.2749C10.1305 27.382 19.4967 24.7311 21.1941 24.2759C23.3979 23.6868 23.3535 21.5625 21.7895 21.3215V21.3304Z" fill="white"/>
<path fill-rule="evenodd" clip-rule="evenodd" d="M24.8552 15.8838C24.2153 15.8302 16.2886 17.9903 14.7069 18.4722C12.9918 18.9988 13.1784 20.9892 14.6624 21.2927C15.3378 21.4356 20.4653 19.8378 21.4072 19.5879C22.5091 19.2934 23.5488 19.106 24.7752 18.7221C26.7213 18.1242 26.2859 15.9998 24.8552 15.8838Z" fill="#42FF9A"/>
<path fill-rule="evenodd" clip-rule="evenodd" d="M23.8794 5.63699C26.4743 7.1365 28.4914 9.26081 29.8511 11.7154C29.0335 11.7154 28.2249 12.0099 27.585 12.5455C26.4387 10.5997 24.7858 8.91271 22.6975 7.70774C16.2104 3.95896 7.92829 6.19931 4.19598 12.715C0.463681 19.2308 2.69417 27.5496 9.18124 31.2983C15.6684 35.0471 23.9505 32.8067 27.6828 26.291C29.0247 23.9435 29.5934 21.373 29.4778 18.8559C30.3043 18.9452 31.1307 18.7488 31.8239 18.2936C32.0638 21.3908 31.4062 24.5862 29.7444 27.4781C25.3545 35.1363 15.6239 37.7694 7.99934 33.3602C0.374818 28.9509 -2.24668 19.1773 2.14321 11.519C6.5331 3.86078 16.2637 1.2277 23.8883 5.63699H23.8794Z" fill="white"/>
<path d="M28.7914 17.1612C29.8157 17.7535 31.1241 17.3997 31.7139 16.3709C32.3036 15.342 31.9513 14.0278 30.927 13.4355C29.9027 12.8432 28.5943 13.197 28.0045 14.2258C27.4148 15.2547 27.7671 16.5688 28.7914 17.1612Z" fill="#FFCC00"/>
</g>
</g>
<path d="M44.6 3.99C44.5667 4.04667 44.5317 4.08833 44.495 4.115C44.4583 4.14167 44.4117 4.155 44.355 4.155C44.295 4.155 44.2267 4.12833 44.15 4.075C44.0733 4.01833 43.9767 3.95667 43.86 3.89C43.7467 3.82 43.61 3.75833 43.45 3.705C43.29 3.64833 43.0983 3.62 42.875 3.62C42.665 3.62 42.48 3.64833 42.32 3.705C42.1633 3.75833 42.0317 3.83333 41.925 3.93C41.8183 4.02333 41.7367 4.135 41.68 4.265C41.6267 4.39167 41.6 4.53 41.6 4.68C41.6 4.87333 41.6483 5.03333 41.745 5.16C41.845 5.28667 41.975 5.395 42.135 5.485C42.295 5.575 42.4767 5.65333 42.68 5.72C42.8833 5.78667 43.0917 5.85667 43.305 5.93C43.5183 6 43.7267 6.08167 43.93 6.175C44.1333 6.26833 44.315 6.38667 44.475 6.53C44.635 6.67 44.7633 6.84333 44.86 7.05C44.96 7.25333 45.01 7.50333 45.01 7.8C45.01 8.11667 44.955 8.41333 44.845 8.69C44.7383 8.96667 44.5817 9.20833 44.375 9.415C44.1683 9.62167 43.9133 9.785 43.61 9.905C43.31 10.0217 42.9683 10.08 42.585 10.08C42.355 10.08 42.1317 10.0567 41.915 10.01C41.6983 9.96667 41.4933 9.905 41.3 9.825C41.1067 9.74167 40.925 9.64333 40.755 9.53C40.5883 9.41333 40.4383 9.28333 40.305 9.14L40.61 8.63C40.64 8.59 40.675 8.55667 40.715 8.53C40.7583 8.50333 40.8067 8.49 40.86 8.49C40.93 8.49 41.01 8.52667 41.1 8.6C41.1933 8.67333 41.3067 8.755 41.44 8.845C41.5767 8.93167 41.7383 9.01167 41.925 9.085C42.115 9.15833 42.345 9.195 42.615 9.195C42.835 9.195 43.0317 9.16667 43.205 9.11C43.3783 9.05 43.5233 8.96667 43.64 8.86C43.76 8.75 43.8517 8.61833 43.915 8.465C43.9783 8.31167 44.01 8.14167 44.01 7.955C44.01 7.745 43.9617 7.57333 43.865 7.44C43.7683 7.30667 43.64 7.195 43.48 7.105C43.32 7.015 43.1383 6.93833 42.935 6.875C42.7317 6.81167 42.5233 6.74667 42.31 6.68C42.0967 6.61 41.8883 6.53 41.685 6.44C41.4817 6.35 41.3 6.23333 41.14 6.09C40.98 5.94333 40.8517 5.76167 40.755 5.545C40.6583 5.325 40.61 5.055 40.61 4.735C40.61 4.47833 40.66 4.23 40.76 3.99C40.86 3.75 41.005 3.53833 41.195 3.355C41.3883 3.16833 41.625 3.02 41.905 2.91C42.185 2.79667 42.505 2.74 42.865 2.74C43.2683 2.74 43.6383 2.805 43.975 2.935C44.315 3.06167 44.61 3.245 44.86 3.485L44.6 3.99ZM49.1245 9.145C49.4111 9.145 49.6678 9.09667 49.8945 9C50.1211 8.90333 50.3128 8.76833 50.4695 8.595C50.6261 8.41833 50.7461 8.21 50.8295 7.97C50.9128 7.72667 50.9545 7.45833 50.9545 7.165V2.82H52.0145V7.165C52.0145 7.585 51.9478 7.97333 51.8145 8.33C51.6811 8.68667 51.4895 8.995 51.2395 9.255C50.9895 9.515 50.6861 9.71833 50.3295 9.865C49.9728 10.0117 49.5711 10.085 49.1245 10.085C48.6778 10.085 48.2761 10.0117 47.9195 9.865C47.5628 9.71833 47.2595 9.515 47.0095 9.255C46.7595 8.995 46.5678 8.68667 46.4345 8.33C46.3011 7.97333 46.2345 7.585 46.2345 7.165V2.82H47.2995V7.16C47.2995 7.45333 47.3395 7.72167 47.4195 7.965C47.5028 8.20833 47.6228 8.41833 47.7795 8.595C47.9361 8.76833 48.1278 8.90333 48.3545 9C48.5811 9.09667 48.8378 9.145 49.1245 9.145ZM57.4125 3.99C57.3792 4.04667 57.3442 4.08833 57.3075 4.115C57.2708 4.14167 57.2242 4.155 57.1675 4.155C57.1075 4.155 57.0392 4.12833 56.9625 4.075C56.8858 4.01833 56.7892 3.95667 56.6725 3.89C56.5592 3.82 56.4225 3.75833 56.2625 3.705C56.1025 3.64833 55.9108 3.62 55.6875 3.62C55.4775 3.62 55.2925 3.64833 55.1325 3.705C54.9758 3.75833 54.8442 3.83333 54.7375 3.93C54.6308 4.02333 54.5492 4.135 54.4925 4.265C54.4392 4.39167 54.4125 4.53 54.4125 4.68C54.4125 4.87333 54.4608 5.03333 54.5575 5.16C54.6575 5.28667 54.7875 5.395 54.9475 5.485C55.1075 5.575 55.2892 5.65333 55.4925 5.72C55.6958 5.78667 55.9042 5.85667 56.1175 5.93C56.3308 6 56.5392 6.08167 56.7425 6.175C56.9458 6.26833 57.1275 6.38667 57.2875 6.53C57.4475 6.67 57.5758 6.84333 57.6725 7.05C57.7725 7.25333 57.8225 7.50333 57.8225 7.8C57.8225 8.11667 57.7675 8.41333 57.6575 8.69C57.5508 8.96667 57.3942 9.20833 57.1875 9.415C56.9808 9.62167 56.7258 9.785 56.4225 9.905C56.1225 10.0217 55.7808 10.08 55.3975 10.08C55.1675 10.08 54.9442 10.0567 54.7275 10.01C54.5108 9.96667 54.3058 9.905 54.1125 9.825C53.9192 9.74167 53.7375 9.64333 53.5675 9.53C53.4008 9.41333 53.2508 9.28333 53.1175 9.14L53.4225 8.63C53.4525 8.59 53.4875 8.55667 53.5275 8.53C53.5708 8.50333 53.6192 8.49 53.6725 8.49C53.7425 8.49 53.8225 8.52667 53.9125 8.6C54.0058 8.67333 54.1192 8.755 54.2525 8.845C54.3892 8.93167 54.5508 9.01167 54.7375 9.085C54.9275 9.15833 55.1575 9.195 55.4275 9.195C55.6475 9.195 55.8442 9.16667 56.0175 9.11C56.1908 9.05 56.3358 8.96667 56.4525 8.86C56.5725 8.75 56.6642 8.61833 56.7275 8.465C56.7908 8.31167 56.8225 8.14167 56.8225 7.955C56.8225 7.745 56.7742 7.57333 56.6775 7.44C56.5808 7.30667 56.4525 7.195 56.2925 7.105C56.1325 7.015 55.9508 6.93833 55.7475 6.875C55.5442 6.81167 55.3358 6.74667 55.1225 6.68C54.9092 6.61 54.7008 6.53 54.4975 6.44C54.2942 6.35 54.1125 6.23333 53.9525 6.09C53.7925 5.94333 53.6642 5.76167 53.5675 5.545C53.4708 5.325 53.4225 5.055 53.4225 4.735C53.4225 4.47833 53.4725 4.23 53.5725 3.99C53.6725 3.75 53.8175 3.53833 54.0075 3.355C54.2008 3.16833 54.4375 3.02 54.7175 2.91C54.9975 2.79667 55.3175 2.74 55.6775 2.74C56.0808 2.74 56.4508 2.805 56.7875 2.935C57.1275 3.06167 57.4225 3.245 57.6725 3.485L57.4125 3.99ZM64.032 3.71H61.752V10H60.692V3.71H58.402V2.82H64.032V3.71ZM68.1766 7.325L67.1116 4.54C67.0349 4.35 66.9582 4.11 66.8816 3.82C66.8449 3.96333 66.8066 4.09667 66.7666 4.22C66.7299 4.34333 66.6932 4.45333 66.6566 4.55L65.5966 7.325H68.1766ZM70.2816 10H69.4616C69.3682 10 69.2916 9.97667 69.2316 9.93C69.1716 9.88333 69.1282 9.82333 69.1016 9.75L68.4666 8.085H65.3016L64.6666 9.75C64.6432 9.81333 64.5999 9.87167 64.5366 9.925C64.4732 9.975 64.3966 10 64.3066 10H63.4866L66.3466 2.82H67.4216L70.2816 10ZM72.248 10H71.178V2.82H72.248V10ZM79.8998 2.82V10H79.3598C79.2764 10 79.2064 9.985 79.1498 9.955C79.0964 9.925 79.0414 9.87667 78.9848 9.81L74.9298 4.565C74.9364 4.655 74.9414 4.74333 74.9448 4.83C74.9514 4.91667 74.9548 4.99833 74.9548 5.075V10H74.0198V2.82H74.5698C74.6631 2.82 74.7331 2.83167 74.7798 2.855C74.8264 2.875 74.8781 2.92333 74.9348 3L78.9998 8.25C78.9898 8.15333 78.9814 8.06 78.9748 7.97C78.9714 7.87667 78.9698 7.79 78.9698 7.71V2.82H79.8998ZM85.491 7.325L84.426 4.54C84.3493 4.35 84.2727 4.11 84.196 3.82C84.1593 3.96333 84.121 4.09667 84.081 4.22C84.0443 4.34333 84.0077 4.45333 83.971 4.55L82.911 7.325H85.491ZM87.596 10H86.776C86.6827 10 86.606 9.97667 86.546 9.93C86.486 9.88333 86.4427 9.82333 86.416 9.75L85.781 8.085H82.616L81.981 9.75C81.9577 9.81333 81.9143 9.87167 81.851 9.925C81.7877 9.975 81.711 10 81.621 10H80.801L83.661 2.82H84.736L87.596 10ZM91.0574 9.155C91.3274 9.155 91.5574 9.12333 91.7474 9.06C91.9408 8.99667 92.0974 8.91 92.2174 8.8C92.3408 8.69 92.4308 8.56 92.4874 8.41C92.5441 8.25667 92.5724 8.09 92.5724 7.91C92.5724 7.55333 92.4491 7.27333 92.2024 7.07C91.9558 6.86333 91.5741 6.76 91.0574 6.76H89.5574V9.155H91.0574ZM89.5574 3.655V6.005H90.7824C91.3058 6.005 91.6941 5.9 91.9474 5.69C92.2041 5.47667 92.3324 5.19 92.3324 4.83C92.3324 4.42 92.2108 4.12167 91.9674 3.935C91.7241 3.74833 91.3458 3.655 90.8324 3.655H89.5574ZM90.8324 2.82C91.2824 2.82 91.6674 2.86333 91.9874 2.95C92.3108 3.03667 92.5758 3.16167 92.7824 3.325C92.9891 3.48833 93.1408 3.68667 93.2374 3.92C93.3374 4.15 93.3874 4.41167 93.3874 4.705C93.3874 4.87833 93.3608 5.045 93.3074 5.205C93.2541 5.365 93.1724 5.515 93.0624 5.655C92.9524 5.79167 92.8141 5.915 92.6474 6.025C92.4808 6.135 92.2841 6.22667 92.0574 6.3C93.1008 6.50667 93.6224 7.05167 93.6224 7.935C93.6224 8.24167 93.5658 8.52167 93.4524 8.775C93.3391 9.025 93.1741 9.24167 92.9574 9.425C92.7408 9.60833 92.4741 9.75 92.1574 9.85C91.8408 9.95 91.4808 10 91.0774 10H88.4924V2.82H90.8324ZM99.0966 9.105V10H94.9866V2.82H96.0516V9.105H99.0966ZM104.588 9.135L104.583 10H100.133V2.82H104.583V3.685H101.203V5.96H103.923V6.795H101.203V9.135H104.588ZM41.955 23H40.885V15.82H41.955V23ZM49.6068 15.82V23H49.0668C48.9835 23 48.9135 22.985 48.8568 22.955C48.8035 22.925 48.7485 22.8767 48.6918 22.81L44.6368 17.565C44.6435 17.655 44.6485 17.7433 44.6518 17.83C44.6585 17.9167 44.6618 17.9983 44.6618 18.075V23H43.7268V15.82H44.2768C44.3701 15.82 44.4401 15.8317 44.4868 15.855C44.5335 15.875 44.5851 15.9233 44.6418 16L48.7068 21.25C48.6968 21.1533 48.6885 21.06 48.6818 20.97C48.6785 20.8767 48.6768 20.79 48.6768 20.71V15.82H49.6068ZM57.263 15.82V23H56.723C56.6397 23 56.5697 22.985 56.513 22.955C56.4597 22.925 56.4047 22.8767 56.348 22.81L52.293 17.565C52.2997 17.655 52.3047 17.7433 52.308 17.83C52.3147 17.9167 52.318 17.9983 52.318 18.075V23H51.383V15.82H51.933C52.0264 15.82 52.0964 15.8317 52.143 15.855C52.1897 15.875 52.2414 15.9233 52.298 16L56.363 21.25C56.353 21.1533 56.3447 21.06 56.338 20.97C56.3347 20.8767 56.333 20.79 56.333 20.71V15.82H57.263ZM65.7293 19.41C65.7293 19.9467 65.6426 20.44 65.4693 20.89C65.2993 21.3367 65.0576 21.7233 64.7443 22.05C64.431 22.3733 64.056 22.625 63.6193 22.805C63.1826 22.985 62.6976 23.075 62.1643 23.075C61.6343 23.075 61.1493 22.985 60.7093 22.805C60.2726 22.625 59.8976 22.3733 59.5843 22.05C59.2743 21.7233 59.0326 21.3367 58.8593 20.89C58.686 20.44 58.5993 19.9467 58.5993 19.41C58.5993 18.8767 58.686 18.385 58.8593 17.935C59.0326 17.485 59.2743 17.0983 59.5843 16.775C59.8976 16.4483 60.2726 16.195 60.7093 16.015C61.1493 15.8317 61.6343 15.74 62.1643 15.74C62.6976 15.74 63.1826 15.8317 63.6193 16.015C64.056 16.195 64.431 16.4483 64.7443 16.775C65.0576 17.0983 65.2993 17.485 65.4693 17.935C65.6426 18.385 65.7293 18.8767 65.7293 19.41ZM64.6393 19.41C64.6393 18.9833 64.581 18.6 64.4643 18.26C64.3476 17.92 64.181 17.6317 63.9643 17.395C63.751 17.1583 63.491 16.9767 63.1843 16.85C62.881 16.7233 62.541 16.66 62.1643 16.66C61.7876 16.66 61.446 16.7233 61.1393 16.85C60.836 16.9767 60.576 17.1583 60.3593 17.395C60.1426 17.6317 59.976 17.92 59.8593 18.26C59.7426 18.6 59.6843 18.9833 59.6843 19.41C59.6843 19.84 59.7426 20.225 59.8593 20.565C59.976 20.9017 60.1426 21.1883 60.3593 21.425C60.576 21.6617 60.836 21.8433 61.1393 21.97C61.446 22.0933 61.7876 22.155 62.1643 22.155C62.541 22.155 62.881 22.0933 63.1843 21.97C63.491 21.8433 63.751 21.6617 63.9643 21.425C64.181 21.1883 64.3476 20.9017 64.4643 20.565C64.581 20.225 64.6393 19.84 64.6393 19.41ZM72.7718 15.82L69.8518 23H68.8968L65.9768 15.82H66.8268C66.9201 15.82 66.9951 15.8433 67.0518 15.89C67.1118 15.9367 67.1568 15.9967 67.1868 16.07L69.1268 20.95C69.1735 21.07 69.2185 21.2017 69.2618 21.345C69.3085 21.4883 69.3501 21.6383 69.3868 21.795C69.4201 21.6383 69.4568 21.4883 69.4968 21.345C69.5368 21.2017 69.5801 21.07 69.6268 20.95L71.5618 16.07C71.5851 16.0033 71.6268 15.945 71.6868 15.895C71.7501 15.845 71.8268 15.82 71.9168 15.82H72.7718ZM76.9363 20.325L75.8713 17.54C75.7947 17.35 75.718 17.11 75.6413 16.82C75.6047 16.9633 75.5663 17.0967 75.5263 17.22C75.4897 17.3433 75.453 17.4533 75.4163 17.55L74.3563 20.325H76.9363ZM79.0413 23H78.2213C78.128 23 78.0513 22.9767 77.9913 22.93C77.9313 22.8833 77.888 22.8233 77.8613 22.75L77.2263 21.085H74.0613L73.4263 22.75C73.403 22.8133 73.3597 22.8717 73.2963 22.925C73.233 22.975 73.1563 23 73.0663 23H72.2463L75.1063 15.82H76.1813L79.0413 23ZM84.1296 16.71H81.8496V23H80.7896V16.71H78.4996V15.82H84.1296V16.71ZM86.2323 23H85.1623V15.82H86.2323V23ZM94.6941 19.41C94.6941 19.9467 94.6075 20.44 94.4341 20.89C94.2641 21.3367 94.0225 21.7233 93.7091 22.05C93.3958 22.3733 93.0208 22.625 92.5841 22.805C92.1475 22.985 91.6625 23.075 91.1291 23.075C90.5991 23.075 90.1141 22.985 89.6741 22.805C89.2375 22.625 88.8625 22.3733 88.5491 22.05C88.2391 21.7233 87.9975 21.3367 87.8241 20.89C87.6508 20.44 87.5641 19.9467 87.5641 19.41C87.5641 18.8767 87.6508 18.385 87.8241 17.935C87.9975 17.485 88.2391 17.0983 88.5491 16.775C88.8625 16.4483 89.2375 16.195 89.6741 16.015C90.1141 15.8317 90.5991 15.74 91.1291 15.74C91.6625 15.74 92.1475 15.8317 92.5841 16.015C93.0208 16.195 93.3958 16.4483 93.7091 16.775C94.0225 17.0983 94.2641 17.485 94.4341 17.935C94.6075 18.385 94.6941 18.8767 94.6941 19.41ZM93.6041 19.41C93.6041 18.9833 93.5458 18.6 93.4291 18.26C93.3125 17.92 93.1458 17.6317 92.9291 17.395C92.7158 17.1583 92.4558 16.9767 92.1491 16.85C91.8458 16.7233 91.5058 16.66 91.1291 16.66C90.7525 16.66 90.4108 16.7233 90.1041 16.85C89.8008 16.9767 89.5408 17.1583 89.3241 17.395C89.1075 17.6317 88.9408 17.92 88.8241 18.26C88.7075 18.6 88.6491 18.9833 88.6491 19.41C88.6491 19.84 88.7075 20.225 88.8241 20.565C88.9408 20.9017 89.1075 21.1883 89.3241 21.425C89.5408 21.6617 89.8008 21.8433 90.1041 21.97C90.4108 22.0933 90.7525 22.155 91.1291 22.155C91.5058 22.155 91.8458 22.0933 92.1491 21.97C92.4558 21.8433 92.7158 21.6617 92.9291 21.425C93.1458 21.1883 93.3125 20.9017 93.4291 20.565C93.5458 20.225 93.6041 19.84 93.6041 19.41ZM101.911 15.82V23H101.371C101.288 23 101.218 22.985 101.161 22.955C101.108 22.925 101.053 22.8767 100.996 22.81L96.9415 17.565C96.9482 17.655 96.9532 17.7433 96.9565 17.83C96.9632 17.9167 96.9665 17.9983 96.9665 18.075V23H96.0315V15.82H96.5815C96.6748 15.82 96.7448 15.8317 96.7915 15.855C96.8382 15.875 96.8898 15.9233 96.9465 16L101.011 21.25C101.001 21.1533 100.993 21.06 100.986 20.97C100.983 20.8767 100.981 20.79 100.981 20.71V15.82H101.911ZM45.34 35.135L45.335 36H40.885V28.82H45.335V29.685H41.955V31.96H44.675V32.795H41.955V35.135H45.34ZM52.5365 28.82V36H51.9965C51.9132 36 51.8432 35.985 51.7865 35.955C51.7332 35.925 51.6782 35.8767 51.6215 35.81L47.5665 30.565C47.5732 30.655 47.5782 30.7433 47.5815 30.83C47.5882 30.9167 47.5915 30.9983 47.5915 31.075V36H46.6565V28.82H47.2065C47.2998 28.82 47.3698 28.8317 47.4165 28.855C47.4632 28.875 47.5148 28.9233 47.5715 29L51.6365 34.25C51.6265 34.1533 51.6182 34.06 51.6115 33.97C51.6082 33.8767 51.6065 33.79 51.6065 33.71V28.82H52.5365ZM59.2077 29.71H56.9277V36H55.8677V29.71H53.5777V28.82H59.2077V29.71ZM64.6955 35.135L64.6905 36H60.2405V28.82H64.6905V29.685H61.3105V31.96H64.0305V32.795H61.3105V35.135H64.6955ZM68.047 32.28C68.3203 32.28 68.5603 32.2467 68.767 32.18C68.977 32.1133 69.152 32.02 69.292 31.9C69.432 31.7767 69.537 31.6317 69.607 31.465C69.677 31.295 69.712 31.1083 69.712 30.905C69.712 30.4917 69.5753 30.18 69.302 29.97C69.032 29.76 68.6253 29.655 68.082 29.655H67.077V32.28H68.047ZM71.397 36H70.447C70.257 36 70.1186 35.925 70.032 35.775L68.257 33.285C68.2003 33.2017 68.1386 33.1433 68.072 33.11C68.0053 33.0733 67.9053 33.055 67.772 33.055H67.077V36H66.012V28.82H68.082C68.5453 28.82 68.9436 28.8683 69.277 28.965C69.6136 29.0583 69.8903 29.1933 70.107 29.37C70.327 29.5433 70.4886 29.7533 70.592 30C70.6986 30.2467 70.752 30.5233 70.752 30.83C70.752 31.08 70.7136 31.315 70.637 31.535C70.5603 31.755 70.447 31.9533 70.297 32.13C70.1503 32.3033 69.9703 32.4533 69.757 32.58C69.5436 32.7067 69.302 32.8033 69.032 32.87C69.1653 32.95 69.2803 33.0617 69.377 33.205L71.397 36ZM74.4955 32.515C74.7655 32.515 75.0022 32.48 75.2055 32.41C75.4122 32.34 75.5839 32.2417 75.7205 32.115C75.8605 31.985 75.9655 31.8317 76.0355 31.655C76.1055 31.475 76.1405 31.2767 76.1405 31.06C76.1405 30.6233 76.0039 30.28 75.7305 30.03C75.4605 29.78 75.0489 29.655 74.4955 29.655H73.3855V32.515H74.4955ZM74.4955 28.82C74.9555 28.82 75.3555 28.8733 75.6955 28.98C76.0355 29.0867 76.3172 29.2383 76.5405 29.435C76.7639 29.6283 76.9289 29.8633 77.0355 30.14C77.1455 30.4167 77.2005 30.7233 77.2005 31.06C77.2005 31.3967 77.1422 31.7067 77.0255 31.99C76.9089 32.27 76.7372 32.5117 76.5105 32.715C76.2839 32.9183 76.0005 33.0767 75.6605 33.19C75.3239 33.3 74.9355 33.355 74.4955 33.355H73.3855V36H72.3205V28.82H74.4955ZM80.4102 32.28C80.6836 32.28 80.9236 32.2467 81.1302 32.18C81.3402 32.1133 81.5152 32.02 81.6552 31.9C81.7952 31.7767 81.9002 31.6317 81.9702 31.465C82.0402 31.295 82.0752 31.1083 82.0752 30.905C82.0752 30.4917 81.9386 30.18 81.6652 29.97C81.3952 29.76 80.9886 29.655 80.4452 29.655H79.4402V32.28H80.4102ZM83.7602 36H82.8102C82.6202 36 82.4819 35.925 82.3952 35.775L80.6202 33.285C80.5636 33.2017 80.5019 33.1433 80.4352 33.11C80.3686 33.0733 80.2686 33.055 80.1352 33.055H79.4402V36H78.3752V28.82H80.4452C80.9086 28.82 81.3069 28.8683 81.6402 28.965C81.9769 29.0583 82.2536 29.1933 82.4702 29.37C82.6902 29.5433 82.8519 29.7533 82.9552 30C83.0619 30.2467 83.1152 30.5233 83.1152 30.83C83.1152 31.08 83.0769 31.315 83.0002 31.535C82.9236 31.755 82.8102 31.9533 82.6602 32.13C82.5136 32.3033 82.3336 32.4533 82.1202 32.58C81.9069 32.7067 81.6652 32.8033 81.3952 32.87C81.5286 32.95 81.6436 33.0617 81.7402 33.205L83.7602 36ZM85.7538 36H84.6838V28.82H85.7538V36ZM91.2406 29.99C91.2073 30.0467 91.1723 30.0883 91.1356 30.115C91.099 30.1417 91.0523 30.155 90.9956 30.155C90.9356 30.155 90.8673 30.1283 90.7906 30.075C90.714 30.0183 90.6173 29.9567 90.5006 29.89C90.3873 29.82 90.2506 29.7583 90.0906 29.705C89.9306 29.6483 89.739 29.62 89.5156 29.62C89.3056 29.62 89.1206 29.6483 88.9606 29.705C88.804 29.7583 88.6723 29.8333 88.5656 29.93C88.459 30.0233 88.3773 30.135 88.3206 30.265C88.2673 30.3917 88.2406 30.53 88.2406 30.68C88.2406 30.8733 88.289 31.0333 88.3856 31.16C88.4856 31.2867 88.6156 31.395 88.7756 31.485C88.9356 31.575 89.1173 31.6533 89.3206 31.72C89.524 31.7867 89.7323 31.8567 89.9456 31.93C90.159 32 90.3673 32.0817 90.5706 32.175C90.774 32.2683 90.9556 32.3867 91.1156 32.53C91.2756 32.67 91.404 32.8433 91.5006 33.05C91.6006 33.2533 91.6506 33.5033 91.6506 33.8C91.6506 34.1167 91.5956 34.4133 91.4856 34.69C91.379 34.9667 91.2223 35.2083 91.0156 35.415C90.809 35.6217 90.554 35.785 90.2506 35.905C89.9506 36.0217 89.609 36.08 89.2256 36.08C88.9956 36.08 88.7723 36.0567 88.5556 36.01C88.339 35.9667 88.134 35.905 87.9406 35.825C87.7473 35.7417 87.5656 35.6433 87.3956 35.53C87.229 35.4133 87.079 35.2833 86.9456 35.14L87.2506 34.63C87.2806 34.59 87.3156 34.5567 87.3556 34.53C87.399 34.5033 87.4473 34.49 87.5006 34.49C87.5706 34.49 87.6506 34.5267 87.7406 34.6C87.834 34.6733 87.9473 34.755 88.0806 34.845C88.2173 34.9317 88.379 35.0117 88.5656 35.085C88.7556 35.1583 88.9856 35.195 89.2556 35.195C89.4756 35.195 89.6723 35.1667 89.8456 35.11C90.019 35.05 90.164 34.9667 90.2806 34.86C90.4006 34.75 90.4923 34.6183 90.5556 34.465C90.619 34.3117 90.6506 34.1417 90.6506 33.955C90.6506 33.745 90.6023 33.5733 90.5056 33.44C90.409 33.3067 90.2806 33.195 90.1206 33.105C89.9606 33.015 89.779 32.9383 89.5756 32.875C89.3723 32.8117 89.164 32.7467 88.9506 32.68C88.7373 32.61 88.529 32.53 88.3256 32.44C88.1223 32.35 87.9406 32.2333 87.7806 32.09C87.6206 31.9433 87.4923 31.7617 87.3956 31.545C87.299 31.325 87.2506 31.055 87.2506 30.735C87.2506 30.4783 87.3006 30.23 87.4006 29.99C87.5006 29.75 87.6456 29.5383 87.8356 29.355C88.029 29.1683 88.2656 29.02 88.5456 28.91C88.8256 28.7967 89.1456 28.74 89.5056 28.74C89.909 28.74 90.279 28.805 90.6156 28.935C90.9556 29.0617 91.2506 29.245 91.5006 29.485L91.2406 29.99ZM97.4201 35.135L97.4151 36H92.9651V28.82H97.4151V29.685H94.0351V31.96H96.7551V32.795H94.0351V35.135H97.4201Z" fill="#555C74"/>
<defs>
<clipPath id="clip0_2014_33288">
<rect width="32" height="32" fill="white" transform="translate(0 3.5)"/>
</clipPath>
</defs>
</svg>
